<svg width="18" height="18" viewBox="0 0 18 18" fill="none" xmlns="http://www.w3.org/2000/svg">
<g id="Bitcoin svg" clip-path="url(#clip0_114_8278)">
<g id="Group">
<g id="Group_2">
<path id="Vector" d="M17.7241 11.1807C16.5238 16.0071 11.6348 18.933 6.82088 17.7327C2.00695 16.5323 -0.931415 11.6433 0.268941 6.82942C1.4693 2.00299 6.35825 -0.922872 11.1722 0.277484C15.9986 1.46534 18.9245 6.35428 17.7241 11.1807Z" fill="#DFE1E7"/>
<path id="Vector_2" d="M12.9602 7.71709C13.1352 6.51673 12.2225 5.87904 10.9846 5.44141L11.3847 3.81593L10.3969 3.56586L10.0093 5.14132C9.74673 5.0788 9.48415 5.01629 9.22157 4.95377L9.62169 3.3658L8.6339 3.11572L8.23378 4.7412C8.02122 4.69119 7.80865 4.64117 7.60859 4.59116L6.24569 4.25356L5.98311 5.30387C5.98311 5.30387 6.72083 5.46642 6.69582 5.47892C7.09594 5.57895 7.17096 5.84153 7.15846 6.05409L6.69582 7.90464C6.72083 7.91714 6.75834 7.91714 6.79585 7.94215C6.75834 7.92965 6.73333 7.92965 6.69582 7.91715L6.04563 10.5054C5.99562 10.6304 5.87058 10.8055 5.5955 10.743C5.608 10.7555 4.88279 10.5679 4.88279 10.5679L4.39514 11.6933L5.68302 12.0184C5.92059 12.0809 6.15816 12.1434 6.38323 12.2059L5.97061 13.8439L6.9584 14.094L7.35852 12.4685C7.6336 12.5435 7.88368 12.606 8.14625 12.6686L7.74613 14.2815L8.73393 14.5316L9.14655 12.8936C10.8345 13.2062 12.0974 13.0812 12.6351 11.5557C13.0602 10.3304 12.6101 9.61765 11.7223 9.15501C12.3475 9.01747 12.8351 8.59234 12.9602 7.71709ZM10.7095 10.8805C10.4094 12.1059 8.33381 11.4432 7.67111 11.2806L8.20877 9.105C8.88397 9.26755 11.0221 9.60515 10.7095 10.8805ZM11.0096 7.70458C10.7345 8.81741 9.00901 8.25475 8.45885 8.1172L8.94649 6.14162C9.50916 6.27916 11.3097 6.54174 11.0096 7.70458Z" fill="white"/>
</g>
</g>
</g>
<defs>
<clipPath id="clip0_114_8278">
<rect width="18" height="18" fill="white"/>
</clipPath>
</defs>
</svg>
