<svg width="21" height="16" viewBox="0 0 21 16" fill="none" xmlns="http://www.w3.org/2000/svg">
<g id="Group 3577">
<path id="Vector" d="M4.96658 3.35328C7.99838 0.328534 12.9137 0.328524 15.9445 3.35328L18.5633 5.96608L15.9445 8.57892C12.9137 11.6036 7.99838 11.6036 4.96658 8.57892L2.34778 5.96608L4.96658 3.35328Z" fill="#868FA0"/>
<path id="Vector_2" fill-rule="evenodd" clip-rule="evenodd" d="M0.455688 5.97028L6.40155 0H14.5098L20.4557 5.97028L10.4562 16L0.455688 5.97028ZM15.0502 3.79659C12.524 1.2505 8.38737 1.25052 5.8612 3.7966L3.6988 5.96612L5.8612 8.13561C8.38737 10.6817 12.524 10.6817 15.0502 8.13561L17.2126 5.96612L15.0502 3.79659Z" fill="#868FA0"/>
<path id="Vector_3" d="M10.4563 7.8645C9.41129 7.8645 8.56409 7.01498 8.56409 5.96621C8.56409 4.91735 9.41129 4.06787 10.4563 4.06787C11.5004 4.06787 12.3476 4.91735 12.3476 5.96621C12.3476 7.01498 11.5004 7.8645 10.4563 7.8645Z" fill="#868FA0"/>
<path id="Vector_4" fill-rule="evenodd" clip-rule="evenodd" d="M7.34827 5.96607C7.34827 7.68911 8.74065 9.08471 10.4563 9.08471C12.1719 9.08471 13.5643 7.68911 13.5643 5.96607C13.5643 4.24298 12.1719 2.84741 10.4563 2.84741C8.74065 2.84741 7.34827 4.24297 7.34827 5.96607ZM9.10443 5.96607C9.10443 6.71518 9.7104 7.32196 10.4563 7.32196C11.2022 7.32196 11.8072 6.71528 11.8072 5.96607C11.8072 5.21689 11.2022 4.61013 10.4563 4.61013C9.7104 4.61013 9.10443 5.21689 9.10443 5.96607Z" fill="white"/>
</g>
</svg>
