<svg width="23" height="22" viewBox="0 0 23 22" fill="none" xmlns="http://www.w3.org/2000/svg">
<g id="Frame">
<path id="Vector" d="M11.3494 3.46533C7.25544 3.46533 3.93547 6.69774 3.93547 10.6837C3.93547 14.6698 7.25545 17.9022 11.3495 17.9022C15.4434 17.9022 18.7634 14.6698 18.7634 10.6837C18.7634 6.69774 15.4434 3.46533 11.3494 3.46533ZM11.3494 16.9349C7.80259 16.9349 4.92895 14.1356 4.92895 10.6837C4.92895 7.2319 7.80408 4.43259 11.3494 4.43259C14.8948 4.43259 17.77 7.2319 17.77 10.6837C17.77 14.1356 14.8948 16.9349 11.3494 16.9349Z" fill="#3661F9"/>
<path id="Vector_2" d="M11.338 14.6037C13.568 14.6037 15.3757 12.8436 15.3757 10.6724C15.3757 8.50128 13.568 6.74121 11.338 6.74121C9.10799 6.74121 7.30025 8.50128 7.30025 10.6724C7.30025 12.8436 9.10799 14.6037 11.338 14.6037Z" fill="#3661F9"/>
<rect x="1.1251" y="0.743613" width="20.4487" height="19.8801" rx="0.554404" stroke="#3661F9" stroke-width="1.10881" stroke-linecap="round" stroke-dasharray="6.65 6.65"/>
</g>
</svg>
