<svg width="20" height="18" viewBox="0 0 20 18" fill="none" xmlns="http://www.w3.org/2000/svg">
<path id="Vector" d="M6.98425 6.85179L4.88752 5.87832C4.85008 5.84087 4.7752 5.87832 4.73776 5.9532L2.56615 11.532C2.52871 11.6069 2.60359 11.6817 2.67848 11.6817H6.94681C7.02169 11.6817 7.05913 11.6443 7.05913 11.5694V6.92668C7.05913 6.88924 7.02169 6.85179 6.98425 6.85179ZM19.3774 12.5055C19.3025 12.4306 19.1902 12.4306 19.0779 12.468L18.8158 12.5803C17.5428 13.2168 16.12 13.5164 14.6972 13.5164C14.6223 13.5164 14.5849 13.5538 14.5849 13.5913C14.4351 14.2652 13.8735 14.7519 13.1621 14.7519H10.2417V12.3183H10.2791C10.4663 12.3557 10.6161 12.3557 10.8033 12.3931C12.0389 12.5803 12.6379 13.142 12.9 13.4041L12.9374 13.4415C12.9749 13.4789 13.0498 13.4789 13.0872 13.4415C13.1247 13.4041 13.1621 13.3666 13.237 13.3292C13.6863 13.0296 14.7346 12.3931 14.7346 9.0234C14.7346 5.57878 12.1137 3.25741 11.8142 3.10765L10.2791 2.99532H10.2417V2.02184C10.5412 1.83463 10.7658 1.49766 10.7658 1.0858C10.7658 0.48674 10.3165 0 9.71748 0C9.11841 0 8.66912 0.48674 8.66912 1.0858C8.66912 1.46022 8.85632 1.79719 9.1933 1.9844V2.80811L6.98425 2.58346C6.87192 2.58346 6.79704 2.69579 6.87192 2.77067C7.24634 3.36974 8.25726 5.24181 8.33214 8.04992C8.40702 10.6708 7.99517 11.9064 7.80796 12.3557C7.77052 12.3931 7.77052 12.4306 7.80796 12.468C7.8454 12.5055 7.88284 12.5055 7.92029 12.5055C8.18238 12.468 8.63167 12.3931 9.1933 12.3557V14.7894H6.7596C5.97333 14.7894 5.29938 14.1154 5.29938 13.3292V12.7301C5.29938 12.6552 5.26194 12.6178 5.18706 12.6178H0.656636C0.619194 12.6178 0.544312 12.6552 0.544312 12.7301C0.544312 12.8424 0.544312 12.9548 0.544312 13.0671C0.544312 14.7519 1.03105 16.287 1.85476 17.6349C2.00453 17.8596 2.26662 17.9719 2.49127 17.8596L2.97801 17.6349C3.35242 17.4477 3.80172 17.4477 4.21358 17.6349L4.73776 17.8596C5.11217 18.0468 5.56147 18.0468 5.97333 17.8596L6.49751 17.6349C6.90937 17.4477 7.32122 17.4477 7.73308 17.6349L8.25726 17.8596C8.66911 18.0468 9.08097 18.0468 9.49283 17.8596L10.017 17.6349C10.4289 17.4477 10.8407 17.4477 11.2526 17.6349L11.7768 17.8596C12.1886 18.0468 12.6005 18.0468 13.0123 17.8596L13.5365 17.6349C13.9484 17.4477 14.3602 17.4477 14.7721 17.6349L15.2963 17.8596C15.6332 18.0094 16.0076 17.8222 16.1949 17.4852C16.4944 16.9984 16.7565 16.4368 16.9437 15.9126C17.3555 14.6771 18.1044 13.5164 19.2651 12.9548C19.3774 12.9173 19.4148 12.805 19.4148 12.6927C19.4897 12.6552 19.4523 12.5429 19.3774 12.5055Z" fill="#868FA0"/>
</svg>
